<svg xml:space="preserve" style="max-height: 500px" viewBox="20.7 14.013513513513514 191.35999999999999 34.22972972972973" y="0px" x="0px" xmlns:xlink="http://www.w3.org/1999/xlink" xmlns="http://www.w3.org/2000/svg" id="Layer_1" version="1.1" width="191.35999999999999" height="34.22972972972973">
<style type="text/css">
	.st0{enable-background:new    ;}
	.st1{fill:#FFFFFF;}
</style>
<g class="st0">
	<path d="M21.1,16.4H25v25.5h10.2V27.6H25l3.9-3.9h6.7c2.1,0,3.5,1.4,3.5,3.5v15.1c0,2.1-1.4,3.5-3.5,3.5h-11&#10;&#9;&#9;c-2.1,0-3.5-1.4-3.5-3.5V31.2c0-2.1,1.4-3.6,3.5-3.6c-2.1,0-3.5-1.3-3.5-3.5V16.4z" class="st1"/>
	<path d="M47.5,27.6v18.2h-3.9V31.2c0-2.1,1.4-3.6,3.5-3.6H47.5z M47.5,23.7H56v3.9h-8.5V23.7z" class="st1"/>
	<path d="M76.2,45.8h-3.9v-13c0,2.1-1.4,3.5-3.5,3.5h-6.7v5.6h10.2l-3.9,3.9h-6.7c-2.1,0-3.5-1.4-3.5-3.5v-9.9h14.1&#10;&#9;&#9;v-4.8h0.4c2.1,0,3.5,1.4,3.5,3.5V45.8z M72.3,27.6H60.5v-3.9h8.2c2.1,0,3.5,1.4,3.6,3.5V27.6z" class="st1"/>
	<path d="M80.7,23.7h3.9v22.1h-3.9V23.7z M94.8,27.6H84.6l3.9-3.9h2.7c2.1,0,3.5,1.4,3.5,3.5V27.6z M98.7,45.8h-3.9&#10;&#9;&#9;V27.6h0.4c2.1,0,3.5,1.4,3.5,3.5V45.8z" class="st1"/>
	<path d="M106.8,27.6v5.8h-3.9v-2.2c0-2.1,1.4-3.6,3.5-3.6H106.8z M106.8,33.3h10.8v8.5l-3.9,3.9h-10.9v-3.9h10.9v-4.6&#10;&#9;&#9;h-6.9V33.3z M106.8,23.7h10.8v3.9h-10.8V23.7z" class="st1"/>
	<path d="M125.5,23.7c-2.1,0-3.5-1.4-3.5-3.5v-1.8h3.9v5.3H125.5z M122,27.6h3.9v14.3h4.6v3.9h-5&#10;&#9;&#9;c-2.1,0-3.5-1.4-3.5-3.5V27.6z M125.9,23.7h4.6v3.9h-4.6V23.7z" class="st1"/>
	<path d="M152.1,45.8h-3.9v-13c0,2.1-1.4,3.5-3.5,3.5h-6.7v5.6h10.2l-3.9,3.9h-6.7c-2.1,0-3.5-1.4-3.5-3.5v-9.9h14.1&#10;&#9;&#9;v-4.8h0.4c2.1,0,3.5,1.4,3.5,3.5V45.8z M148.1,27.6h-11.8v-3.9h8.2c2.1,0,3.5,1.4,3.6,3.5V27.6z" class="st1"/>
	<path d="M156.6,16.4h3.9v25.5h4.6v3.9h-5c-2.1,0-3.5-1.4-3.5-3.5V16.4z" class="st1"/>
	<path d="M168.2,16.4h3.9v15.1h10.3v3.9h-10.3v10.3h-3.9V35.1c0-2.1,1.4-3.6,3.5-3.6c-2.1,0-3.5-1.3-3.5-3.5V16.4z&#10;&#9;&#9; M182.4,23.7h3.9V28c0,2.1-1.4,3.5-3.5,3.5h-0.4V23.7z M186.4,45.8h-3.9V35.5h0.4c2.1,0,3.5,1.4,3.5,3.5V45.8z" class="st1"/>
</g>
<g class="st0">
	<path d="M174.1,22.5v-0.3h1.6v0.3h-0.6v1.6h-0.4v-1.6H174.1z M176.6,22.2l0.5,1.3l0.5-1.3h0.5v1.9h-0.3v-1.5l-0.5,1.5&#10;&#9;&#9;h-0.3l-0.5-1.5v1.5H176v-1.9H176.6z" class="st1"/>
</g>
</svg>